# xmcd CD database file
#
# Track frame offsets:
#	150
#	13694
#	25225
#	41694
#	54195
#	66918
#	80137
#	92842
#	105354
#	118681
#	131734
#	144158
#	157842
#	170464
#	184457
#	208805
#	222271
#	234613
#	247253
#	260956
#
# Disc length: 3660 seconds
#
# Revision: 0
# Processed by: cddbd v1.5.2PL0 Copyright (c) Steve Scherf et al.
# Submitted via: CDex 2.14
#
DISCID=270e4a14
DTITLE=Various Artist - Blues Belters D1
DYEAR=2011
DGENRE=Blues
TTITLE0=Big Joe Turner Shake - Shake Rattle And Roll
TTITLE1=Wynonie Harris - All She Wants To Do Is Rock
TTITLE2=Jimmy Rushing - Goin' To Chicago Blues
TTITLE3=Tiny Bradshaw - The Train Kept-A-Rollin'
TTITLE4=Eddie Vinson - Cherry Red Blues
TTITLE5=Jimmy Witherspoon - Blues In Trouble
TTITLE6=Louis Jordan - Let The Good Times Roll
TTITLE7=Sonny Parker - Pretty Baby
TTITLE8=Big Joe Turner - Piney Brown Blues
TTITLE9=Amos Milburn - Chicken Shack Boogie
TTITLE10=Smiley Lewis - I Hear You Knocking
TTITLE11=Eddie Mack - Heart Throbbing Blues
TTITLE12=Jimmy Witherspoon - Spoon Calls Hootie
TTITLE13=Bull Moose Wilson - I Want A Bow Legged Woman
TTITLE14=Louis Jordan - Saturday Night Fish Fry- Pts 1 and 2
TTITLE15=Walter Brown with Jay McShann's Orchestra - Confessin The Blues
TTITLE16=Eddie Vinson - My Big Brass Bed Is Gone
TTITLE17=Sonny Parker - Sad Feeling
TTITLE18=Joe Liggins - Pink Champagne
TTITLE19=Wynonie Harris - Who Threw The Whiskey In The Well
EXTD=YEAR: 2011
EXTT0=
EXTT1=
EXTT2=
EXTT3=
EXTT4=
EXTT5=
EXTT6=
EXTT7=
EXTT8=
EXTT9=
EXTT10=
EXTT11=
EXTT12=
EXTT13=
EXTT14=
EXTT15=
EXTT16=
EXTT17=
EXTT18=
EXTT19=
PLAYORDER=
